# xmcd
# Copyright (C) 1995-1998 Ti Kan
#
# Track frame offsets:
#       150
#       20107
#       35187
#       46854
#       62405
#       79512
#       96872
#       109845
#       126062
#       142827
#       154131
#       167116
#       191104
#       212270
#       228426
#       248424
#       262489
#       277548
#       292707
#
# Disc length: 4090 seconds
#
# Revision: 0
# Processed by: cddbd v1.5.2PL0 Copyright (c) Steve Scherf et al.
# Submitted via: CD-Transfer v1.0
#
DISCID=fe0ff813
DTITLE=Various Essential - ^essential Hits 21
DYEAR=07
DGENRE=
TTITLE0=Angelis Angel
TTITLE1=Emma Bunton - Down Town
TTITLE2=Fish Go Deep The Cause and The Cure
TTITLE3=James Morrison Wonderful Life
TTITLE4=The Rapture W.a.y.u.h.
TTITLE5=Scissor Sisters Land Of A 1000 Words
TTITLE6=356 One Touch
TTITLE7=Westlife The Rose
TTITLE8=Pussycat Dolls Wait A Minute
TTITLE9=Tenacious D Pod
TTITLE10=The Automatic Recover
TTITLE11=Badly Drawn Boy Nothing`s Gonna Change Your Mind
TTITLE12=The Cahrlatans You`re So Pretty, We´re So Pretty
TTITLE13=The Fratellis Whistle For The Choir
TTITLE14=Oasis Aquiesce
TTITLE15=Panic At The Disco I Write Sins Not Tragedies
TTITLE16=Snow Patrol Fe. Martha Wainwright Set Teh Fire To The Third Bar
TTITLE17=U2 and Green Day The Saints Are Coming
TTITLE18=The Zutons It´s The Little Things We Do
EXTD=
EXTT0=
EXTT1=
EXTT2=
EXTT3=
EXTT4=
EXTT5=
EXTT6=
EXTT7=
EXTT8=
EXTT9=
EXTT10=
EXTT11=
EXTT12=
EXTT13=
EXTT14=
EXTT15=
EXTT16=
EXTT17=
EXTT18=
PLAYORDER=
